<?xml version="1.0" standalone="no"?><!DOCTYPE svg PUBLIC "-//W3C//DTD SVG 1.1//EN" "http://www.w3.org/Graphics/SVG/1.1/DTD/svg11.dtd"><svg t="1627466095949" class="icon" viewBox="0 0 1170 1024" version="1.1" xmlns="http://www.w3.org/2000/svg" p-id="13419" xmlns:xlink="http://www.w3.org/1999/xlink" width="146.25" height="128"><defs><style type="text/css">@font-face { font-family: feedback-iconfont; src: url("//at.alicdn.com/t/font_1031158_1uhr8ri0pk5.eot?#iefix") format("embedded-opentype"), url("//at.alicdn.com/t/font_1031158_1uhr8ri0pk5.woff2") format("woff2"), url("//at.alicdn.com/t/font_1031158_1uhr8ri0pk5.woff") format("woff"), url("//at.alicdn.com/t/font_1031158_1uhr8ri0pk5.ttf") format("truetype"), url("//at.alicdn.com/t/font_1031158_1uhr8ri0pk5.svg#iconfont") format("svg"); }
</style></defs><path d="M1170.409691 219.428571a109.714286 109.714286 0 0 0-85.211428-106.788571l-475.428572-109.714286a109.714286 109.714286 0 0 0-49.005714 0l-475.428571 109.714286a109.714286 109.714286 0 0 0 0 213.942857L182.98112 348.891429V658.285714c0 96.914286 109.714286 182.857143 402.285714 182.857143s402.285714-85.942857 402.285715-182.857143V348.891429l97.645714-22.674286A109.714286 109.714286 0 0 0 1170.409691 219.428571z m-256 438.857143c0 40.594286-109.714286 109.714286-329.142857 109.714286s-329.142857-69.12-329.142857-109.714286v-292.571428l305.005714 70.217143a109.714286 109.714286 0 0 0 49.005715 0L914.409691 365.714286z m-320.731428-292.571428h-16.822857l-475.428572-109.714286a36.571429 36.571429 0 0 1 0-73.142857l475.428572-109.714286h16.822857l475.428571 109.714286a36.571429 36.571429 0 0 1 0 71.314286z" p-id="13420"></path><path d="M1060.695406 402.285714v329.142857a36.571429 36.571429 0 0 0 73.142857 0v-329.142857a36.571429 36.571429 0 0 0-73.142857 0zM1097.266834 804.571429c-40.228571 0-73.142857 106.057143-73.142857 146.285714a73.142857 73.142857 0 0 0 146.285714 0c0-40.228571-32.914286-146.285714-73.142857-146.285714z" p-id="13421"></path></svg>